<?xml version="1.0" encoding="UTF-8"?>
<svg data-bbox="4 4 56 56" xmlns="http://www.w3.org/2000/svg" viewBox="0 0 64 64" data-type="ugc">
    <g>
        <linearGradient y2="32" y1="32" x2="60.001" x1="4" gradientUnits="userSpaceOnUse" id="4e23e1a4-646c-4adb-a4ed-b6fff1cb6946">
            <stop stop-color="#ffde00" offset="0"/>
            <stop stop-color="#fd5900" offset="1"/>
        </linearGradient>
        <path fill="url(#4e23e1a4-646c-4adb-a4ed-b6fff1cb6946)" d="M59 4H25.43c-1.312.028-1.32 1.973 0 2h8.013l-4.079 4.079-8.935 8.936c-1.563-1.568-4.737-4.732-6.3-6.3l7.004-7.005c.623-.585.162-1.737-.703-1.71H5a1 1 0 0 0-1 1v54a1 1 0 0 0 1 1h54a1 1 0 0 0 1-1V35.22c-.017-1.319-1.989-1.302-2 0v7.937l-6.714 6.715-6.3-6.3 14.72-14.722c.16-.205.304-.44.293-.71V5a1 1 0 0 0-1-1zM33.929 51.8c-1.567-1.574-4.733-4.727-6.3-6.3 4.457-4.458 13.416-13.41 17.871-17.87l6.299 6.3-8.936 8.935L33.93 51.8zM15.128 58c1.351-1.349 9.546-9.547 11.086-11.086 1.568 1.572 4.732 4.729 6.3 6.3L27.73 58zM6 48.872v-12.6l4.786-4.787c1.508 1.525 4.817 4.806 6.298 6.302C15.5 39.373 7.4 47.472 6 48.872zm0-28.03 6.714-6.713c1.569 1.572 4.732 4.728 6.3 6.3l-8.935 8.935L6 33.444V20.842zM36.271 6h12.6c-1.354 1.353-9.54 9.543-11.083 11.084-1.559-1.554-4.737-4.733-6.302-6.298L36.27 6zM12.203 30.07 30.07 12.205l4.19 4.185 2.114 2.113-5.401 5.4a1 1 0 1 0 1.414 1.415l6.11-6.11c0-.002 8.932-8.932 8.933-8.933l6.296 6.296C49.26 21.025 40.3 30.01 35.857 34.443c.07.1-6.808-6.829-6.999-6.998-.1-.103-.238-.158-.358-.232a1.069 1.069 0 0 0-1.064.223L18.5 36.372c-1.553-1.575-4.75-4.735-6.297-6.301zm6.992 8.435c.01-.017 8.946-8.923 8.955-8.94l6.293 6.292c-4.456 4.453-13.417 13.42-17.872 17.872l-6.3-6.3zM58 27.729l-4.786 4.786-6.3-6.3.55-.551L58 15.128V27.73zM58 12.3l-2.857 2.857-6.3-6.3L51.7 6H58v6.3zM18.015 6C15.019 8.994 8.995 15.021 6 18.015V6h12.015zM6 51.7l2.857-2.857 6.3 6.3L12.3 58H6zM45.986 58 58 45.986V58zm-2.829 0h-12.6l4.079-4.08 8.935-8.935 6.3 6.3L43.158 58z"/>
    </g>
</svg>
